<?xml version="1.0" encoding="UTF-8"?>
<svg version="1.1" xmlns="http://www.w3.org/2000/svg" width="259" height="194">
<path d="M0 0 C85.47 0 170.94 0 259 0 C259 64.02 259 128.04 259 194 C173.53 194 88.06 194 0 194 C0 129.98 0 65.96 0 0 Z " fill="#DEDEDE" transform="translate(0,0)"/>
<path d="M0 0 C22.11 0 44.22 0 67 0 C67 18.15 67 36.3 67 55 C44.89 55 22.78 55 0 55 C0 36.85 0 18.7 0 0 Z " fill="#D9D9D9" transform="translate(97,70)"/>
<path d="M0 0 C16.5 0 33 0 50 0 C50 12.21 50 24.42 50 37 C45 37 45 37 42.88671875 35.5 C40.40620603 32.21319226 39.16024503 28.86470265 37.8125 25 C37.55275391 24.2884375 37.29300781 23.576875 37.02539062 22.84375 C35.8512055 19.59122686 34.80106169 16.36232046 34 13 C33.34 13 32.68 13 32 13 C31.87625 14.051875 31.7525 15.10375 31.625 16.1875 C30.66991597 22.01351261 30.66991597 22.01351261 29 25 C26.20703125 26.3359375 26.20703125 26.3359375 22.8125 27.375 C17.38302812 29.24044972 14.27212184 30.95594836 10.953125 35.64453125 C9 37 9 37 0 37 C0 24.79 0 12.58 0 0 Z " fill="#A0A0A0" transform="translate(106,79)"/>
<path d="M0 0 C22.11 0 44.22 0 67 0 C67 18.15 67 36.3 67 55 C44.89 55 22.78 55 0 55 C0 36.85 0 18.7 0 0 Z M4 4 C4 19.51 4 35.02 4 51 C23.47 51 42.94 51 63 51 C63 35.49 63 19.98 63 4 C43.53 4 24.06 4 4 4 Z " fill="#A1A1A1" transform="translate(97,70)"/>
<path d="M0 0 C1.8125 1.0625 1.8125 1.0625 3 3 C3.4375 6.5 3.4375 6.5 3 10 C1.3125 12 1.3125 12 -1 13 C-3.8001969 12.86340503 -5.48077872 12.31153277 -7.875 10.875 C-9 9 -9 9 -8.875 5.4375 C-7.56722443 0.29981025 -4.99011177 -0.62376397 0 0 Z " fill="#DDDDDD" transform="translate(123,83)"/>
</svg>
